<svg width="56" height="54" viewBox="0 0 56 54" fill="none" xmlns="http://www.w3.org/2000/svg">
<rect width="56" height="54" rx="11" fill="#0D0A1E"/>
<path d="M11.2 21.7774C11.9413 19.2423 14.266 17.5 16.9073 17.5H43.1635C41.7259 20.1367 38.9627 21.7774 35.9596 21.7774H11.2Z" fill="white"/>
<path d="M23.8585 27.5663C23.8585 25.2039 25.7725 23.2888 28.1348 23.2888C28.9381 23.2888 29.8276 23.2888 30.7794 23.2888C34.7935 23.2888 39.2579 23.2888 39.2579 23.2888C38.3227 25.857 35.8813 27.5663 33.1481 27.5663H30.7794C28.0766 27.5663 26.5613 27.5663 23.8585 27.5663Z" fill="white"/>
<path d="M23.016 27.3492C22.9507 25.1067 24.7807 23.2888 27.0241 23.2888H31.6694C27.584 23.7659 27.1076 27.0812 27.8006 31.9839C28.1628 34.5461 26.7587 37.0598 24.3042 37.8791L23.7463 38.1183C23.7143 36.1504 23.184 33.1248 23.016 27.3492Z" fill="white"/>
</svg>
