<svg width="28" height="28" viewBox="0 0 28 28" fill="none" xmlns="http://www.w3.org/2000/svg">
<path fill-rule="evenodd" clip-rule="evenodd" d="M18.9383 15.7699C18.2483 15.7699 17.682 15.2112 17.682 14.5199C17.682 13.8287 18.2358 13.2699 18.927 13.2699H18.9383C19.6283 13.2699 20.1883 13.8287 20.1883 14.5199C20.1883 15.2112 19.6283 15.7699 18.9383 15.7699ZM13.927 15.7699C13.2358 15.7699 12.6708 15.2112 12.6708 14.5199C12.6708 13.8287 13.2258 13.2699 13.9158 13.2699H13.927C14.617 13.2699 15.177 13.8287 15.177 14.5199C15.177 15.2112 14.617 15.7699 13.927 15.7699ZM8.91579 15.7699C8.22579 15.7699 7.66079 15.2112 7.66079 14.5199C7.66079 13.8287 8.21329 13.2699 8.90454 13.2699H8.91579C9.60579 13.2699 10.1658 13.8287 10.1658 14.5199C10.1658 15.2112 9.60579 15.7699 8.91579 15.7699ZM23.2833 4.71991C20.807 2.24366 17.5108 0.878662 14.0033 0.878662C10.4958 0.878662 7.19954 2.24366 4.72329 4.71991C0.845795 8.59866 -0.211705 14.5512 2.06954 19.4687C2.11079 19.6712 1.99954 20.4949 1.91954 21.0974C1.61704 23.3549 1.46204 25.0124 2.22829 25.7799C2.99329 26.5462 4.64954 26.3912 6.90704 26.0874C7.50954 26.0074 8.34329 25.8999 8.47329 25.9137C10.2308 26.7274 12.1095 27.1212 13.9745 27.1212C17.397 27.1212 20.7745 25.7937 23.2833 23.2837C28.3995 18.1649 28.4008 9.83741 23.2833 4.71991Z" fill="#838A9D"/>
</svg>
