<svg width="24" height="26" viewBox="0 0 24 26" fill="none" xmlns="http://www.w3.org/2000/svg">
<path fill-rule="evenodd" clip-rule="evenodd" d="M16.4936 13.8595H7.46861C6.95111 13.8595 6.53111 13.4395 6.53111 12.922C6.53111 12.4045 6.95111 11.9845 7.46861 11.9845H16.4936C17.0111 11.9845 17.4311 12.4045 17.4311 12.922C17.4311 13.4395 17.0111 13.8595 16.4936 13.8595ZM16.4936 18.5583H7.46861C6.95111 18.5583 6.53111 18.1383 6.53111 17.6208C6.53111 17.1033 6.95111 16.6833 7.46861 16.6833H16.4936C17.0111 16.6833 17.4311 17.1033 17.4311 17.6208C17.4311 18.1383 17.0111 18.5583 16.4936 18.5583ZM7.46861 7.28326H10.9124C11.4299 7.28326 11.8499 7.70326 11.8499 8.22076C11.8499 8.73826 11.4299 9.15826 10.9124 9.15826H7.46861C6.95111 9.15826 6.53111 8.73826 6.53111 8.22076C6.53111 7.70326 6.95111 7.28326 7.46861 7.28326ZM11.9999 0.812012C3.79361 0.812012 0.886108 4.00201 0.886108 13.0008C0.886108 21.9983 3.79361 25.1883 11.9999 25.1883C20.2049 25.1883 23.1136 21.9983 23.1136 13.0008C23.1136 4.00201 20.2049 0.812012 11.9999 0.812012Z" fill="#838A9D"/>
</svg>
