<svg width="26" height="28" viewBox="0 0 26 28" fill="none" xmlns="http://www.w3.org/2000/svg">
<path fill-rule="evenodd" clip-rule="evenodd" d="M16.6351 20.1063H9.36633C8.84883 20.1063 8.42883 19.6863 8.42883 19.1688C8.42883 18.6513 8.84883 18.2313 9.36633 18.2313H16.6351C17.1526 18.2313 17.5726 18.6513 17.5726 19.1688C17.5726 19.6863 17.1526 20.1063 16.6351 20.1063ZM22.0613 6.6975C21.6076 6.2975 21.0913 5.845 20.4763 5.27625C20.1976 5.05125 19.8926 4.79375 19.5688 4.52125C17.7438 2.9825 15.2438 0.875 12.9651 0.875C10.7126 0.875 8.37383 2.865 6.49508 4.46375C6.14758 4.75875 5.82258 5.03625 5.49133 5.305C4.90883 5.845 4.39258 6.29875 3.93758 6.7C0.953828 9.32625 0.392578 10.015 0.392578 16.1413C0.392578 27.125 3.56883 27.125 13.0001 27.125C22.4301 27.125 25.6076 27.125 25.6076 16.1413C25.6076 10.0138 25.0463 9.325 22.0613 6.6975Z" fill="#65D53F"/>
</svg>
